<?xml version="1.0" encoding="UTF-8"?>
<svg xmlns="http://www.w3.org/2000/svg" viewBox="0 0 1080 600" width="1080" height="600">
  <!-- Fondo principal del dispositivo GBA -->
  <rect width="100%" height="100%" rx="40" ry="40" fill="#4B4BA8" />

  <!-- Contorno y sombreado -->
  <defs>
    <linearGradient id="shadow" x1="0" x2="0" y1="0" y2="1">
      <stop offset="0%" stop-color="#5a5a9a" />
      <stop offset="100%" stop-color="#2d2d5a" />
    </linearGradient>
    <linearGradient id="screenGrad" x1="0" x2="0" y1="0" y2="1">
      <stop offset="0%" stop-color="#5fc3ff" />
      <stop offset="100%" stop-color="#1e90ff" />
    </linearGradient>
    <filter id="bevel" x="-20%" y="-20%" width="140%" height="140%">
      <feOffset dx="0" dy="6" result="off"/>
      <feGaussianBlur in="off" stdDeviation="6" result="blur"/>
      <feBlend in="SourceGraphic" in2="blur" mode="normal"/>
    </filter>
  </defs>

  <!-- Speaker slots (left) - convertidas en cuadros de guardado/volumen -->
  <g fill="#d6d8e6" stroke="#333" stroke-width="4">
    <rect x="50" y="140" width="70" height="28" rx="8"/>
  </g>

  <!-- Volume icon inside top-left slot -->
  <g transform="translate(80,154) scale(0.55)">
    <rect x="-20" y="-6" width="40" height="20" rx="2" fill="#333" />
    <polygon points="10,-8 18,0 10,8" fill="#333" />
    <path d="M22 -6 C26 -4, 26 4, 22 6" stroke="#333" stroke-width="2" fill="none" />
  </g>

  <!-- Pantalla (marco) - ajustada a proporción 240x160 (600x400) -->
  <rect x="240" y="100" width="600" height="400" rx="18" ry="18" fill="#000" stroke="#1a1a1a" stroke-width="10" />

  <!-- D-Pad (left) - visual only -->
  <g transform="translate(120,330)" fill="#d6d8e6" stroke="#333" stroke-width="4">
    <rect x="-60" y="-18" width="120" height="36" rx="8" />
    <rect x="-18" y="-60" width="36" height="120" rx="8" />
    <circle cx="0" cy="0" r="6" fill="#333" />
  </g>

  <!-- Botones A/B (right) -->
  <g>
    <circle cx="960" cy="280" r="40" fill="#6B94FF" stroke="#05236b" stroke-width="4"/>
    <text x="960" y="290" text-anchor="middle" fill="#fff" font-family="Arial" font-size="28" font-weight="700">B</text>
    <circle cx="960" cy="380" r="40" fill="#FF6B6B" stroke="#7b0000" stroke-width="4"/>
    <text x="960" y="390" text-anchor="middle" fill="#fff" font-family="Arial" font-size="28" font-weight="700">A</text>
  </g>

  <!-- L / R (shoulders) -->
  <g fill="#b6bad6" stroke="#333" stroke-width="4">
    <rect x="200" y="30" width="180" height="50" rx="8" />
    <rect x="700" y="30" width="180" height="50" rx="8" />
  </g>

  <!-- Power LED -->
  <circle cx="1010" cy="60" r="18" fill="#90EE90" stroke="#2a8f2a" stroke-width="3" />

  <!-- Bottom controls area: Solo Start/Select -->
  <g>
    <rect x="400" y="500" width="120" height="60" rx="8" fill="#d6d8e6" stroke="#333" stroke-width="3" />
    <text x="460" y="540" text-anchor="middle" font-family="Arial" font-size="14" fill="#000">START</text>
    <rect x="560" y="500" width="120" height="60" rx="8" fill="#d6d8e6" stroke="#333" stroke-width="3" />
    <text x="620" y="540" text-anchor="middle" font-family="Arial" font-size="14" fill="#000">SELECT</text>
  </g>
</svg>