<?xml version="1.0" encoding="UTF-8"?>
<svg xmlns="http://www.w3.org/2000/svg" viewBox="0 0 1080 600" width="1080" height="600">
  <!-- Fondo principal del dispositivo GBA -->
  <rect width="100%" height="100%" rx="40" ry="40" fill="#4B4BA8" />

  <!-- Contorno y sombreado -->
  <defs>
    <linearGradient id="shadow" x1="0" x2="0" y1="0" y2="1">
      <stop offset="0%" stop-color="#5a5a9a" />
      <stop offset="100%" stop-color="#2d2d5a" />
    </linearGradient>
    <linearGradient id="screenGrad" x1="0" x2="0" y1="0" y2="1">
      <stop offset="0%" stop-color="#5fc3ff" />
      <stop offset="100%" stop-color="#1e90ff" />
    </linearGradient>
    <filter id="bevel" x="-20%" y="-20%" width="140%" height="140%">
      <feOffset dx="0" dy="6" result="off"/>
      <feGaussianBlur in="off" stdDeviation="6" result="blur"/>
      <feBlend in="SourceGraphic" in2="blur" mode="normal"/>
    </filter>
  </defs>

  <!-- Speaker slots removed -->

  <!-- Pantalla (marco) - ajustada a proporción 240x160 (600x400) -->
  <rect x="240" y="100" width="600" height="400" rx="18" ry="18" fill="#000" stroke="#1a1a1a" stroke-width="10" />

  <!-- D-Pad (left) - visual only -->
  <g transform="translate(120,330)" fill="#d6d8e6" stroke="#333" stroke-width="4">
    <rect x="-60" y="-18" width="120" height="36" rx="8" />
    <rect x="-18" y="-60" width="36" height="120" rx="8" />
    <circle cx="0" cy="0" r="6" fill="#333" />
  </g>

  <!-- Botones A/B (right) -->
  <g>
    <circle cx="960" cy="280" r="40" fill="#6B94FF" stroke="#05236b" stroke-width="4"/>
    <text x="960" y="290" text-anchor="middle" fill="#fff" font-family="Arial" font-size="28" font-weight="700">B</text>
    <circle cx="960" cy="380" r="40" fill="#FF6B6B" stroke="#7b0000" stroke-width="4"/>
    <text x="960" y="390" text-anchor="middle" fill="#fff" font-family="Arial" font-size="28" font-weight="700">A</text>
  </g>

  <!-- L / R (shoulders) removed -->

  <!-- Power LED removed (handled via HTML/CSS) -->

  <!-- Bottom controls area: Solo Start/Select (moved down) -->
  <g>
    <rect x="400" y="520" width="120" height="60" rx="8" fill="#d6d8e6" stroke="#333" stroke-width="3" />
    <text x="460" y="560" text-anchor="middle" font-family="Arial" font-size="14" fill="#000">START</text>
    <rect x="560" y="520" width="120" height="60" rx="8" fill="#d6d8e6" stroke="#333" stroke-width="3" />
    <text x="620" y="560" text-anchor="middle" font-family="Arial" font-size="14" fill="#000">SELECT</text>
  </g>
</svg>